<?xml version="1.0" encoding="UTF-8"?>
<svg id="_Слой_1" xmlns="http://www.w3.org/2000/svg" version="1.1" viewBox="0 0 486.88 423.93">
  <!-- Generator: Adobe Illustrator 29.7.1, SVG Export Plug-In . SVG Version: 2.1.1 Build 8)  -->
  <defs>
    <linearGradient id="paint0_linear" x1="92" y1="32" x2="392" y2="358" gradientUnits="userSpaceOnUse">
      <stop offset="0%" stop-color="#4c019c"/>
      <stop offset="52%" stop-color="#6523b1"/>
      <stop offset="100%" stop-color="#bd9cf7"/>
    </linearGradient>
    <style>
      .st0, .st1 {
        fill: url(#paint0_linear);
      }

      .st1 {
        fill-rule: evenodd;
      }
    </style>
  </defs>
  <path class="st0" d="M127.53,368.64h48.28l19.5-49h96.55l19.5,49h48.28l-98.47-236.57h-35.16l-45.57,109.47c-2.94,7.07-2.54,14.37,1.15,21.07,3.69,6.71,9.64,10.95,17.19,12.25l13.16,2.26,31.65-81.11,31.66,81.11h-109.61l-38.09,91.52h-.02Z"/>
  <path class="st1" d="M242.8,78.38h0l-83.51,51.04L242.55,0h0l85.33,131.91-85.08-53.54h0ZM485.86,423.48l-154.87-1.46,75.64-41.16h.41l-.12-.06-3.22-77.38,83.18,120.43-1.64-.88.62.52h0ZM1.04,423.93l155.14-1.92-75.91-40.71h-.98l.96-.52,3.23-77.38L.29,423.85l1.99-1.07-1.25,1.16h0Z"/>
  <polygon class="st1" points="325.54 174.35 325.54 210.23 445.98 210.23 445.98 174.35 398.6 174.35 367.82 174.35 325.54 174.35"/>
  <path class="st1" d="M367.82,252.5h35.88v-120.43h-35.88v16.17c0,11.7,8.05,21.54,19.53,23.85l11.25,2.26-30.78,10.95v67.2Z"/>
  <path class="st1" d="M211.93,277.12l31.65-81.11,31.66,81.11h46.31l-60.38-145.05h-35.16l-45.57,109.47c-2.94,7.07-2.54,14.37,1.15,21.07,3.69,6.71,9.64,10.95,17.19,12.25l13.16,2.26h0Z"/>
  <path class="st1" d="M367.82,132.07h35.88v42.28h-5.1l-11.25-2.26c-11.47-2.31-19.53-12.14-19.53-23.85v-16.17Z"/>
  <polygon class="st1" points="242.51 78.45 242.35 24.99 242.26 .07 327.59 131.98 242.51 78.45"/>
  <polygon class="st1" points="0 423.91 79.96 380.86 83.18 303.48 0 423.91"/>
  <polygon class="st1" points="485.86 423.48 330.7 422.08 406.63 380.85 485.86 423.48"/>
</svg>